<?xml version="1.0" encoding="UTF-8"?>
<svg width="30px" height="30px" viewBox="0 0 30 30" version="1.1" xmlns="http://www.w3.org/2000/svg" xmlns:xlink="http://www.w3.org/1999/xlink">
    <!-- Generator: sketchtool 44.1 (41455) - http://www.bohemiancoding.com/sketch -->
    <title>79F4FFB1-F957-4161-8BAE-8397AA7319F5</title>
    <desc>Created with sketchtool.</desc>
    <defs></defs>
    <g id="Symbols" stroke="none" stroke-width="1" fill="none" fill-rule="evenodd">
        <g id="HEADER" transform="translate(-184.000000, -34.000000)" fill-rule="nonzero">
            <g id="Social" transform="translate(58.000000, 34.000000)">
                <g id="001-soundcloud" transform="translate(126.000000, 0.000000)">
                    <circle id="Oval" fill="#AF9046" cx="14.8932743" cy="14.8932743" r="14.8932743"></circle>
                    <path d="M4.43548673,18.2742478 C4.42831858,18.3225664 4.39380531,18.3570796 4.34893805,18.3570796 C4.3040708,18.3570796 4.26955752,18.3225664 4.26265487,18.2731858 L4.10522124,17.0949558 L4.26265487,15.8970796 C4.26929204,15.8471681 4.30380531,15.8126549 4.34893805,15.8126549 C4.39353982,15.8126549 4.4280531,15.8471681 4.43548673,15.8970796 L4.62292035,17.0962832 L4.43548673,18.2742478 Z M5.23752212,18.99 C5.2300885,19.0412389 5.19292035,19.0770796 5.14699115,19.0770796 C5.10238938,19.0770796 5.06336283,19.0412389 5.05725664,18.99 L4.84539823,17.0946903 L5.05725664,15.1569027 C5.06362832,15.1069912 5.10238938,15.069823 5.14699115,15.069823 C5.19292035,15.069823 5.2300885,15.1061947 5.23752212,15.1569027 L5.47858407,17.0946903 L5.23752212,18.99 Z M6.10300885,19.3109735 C6.09690265,19.3725664 6.05070796,19.4163717 5.99522124,19.4163717 C5.93787611,19.4163717 5.89247788,19.3725664 5.88690265,19.3109735 L5.6859292,17.0962832 L5.88690265,14.7974336 C5.8919469,14.7350442 5.93787611,14.6904425 5.99522124,14.6904425 C6.05070796,14.6904425 6.09663717,14.7350442 6.10300885,14.7974336 L6.33106195,17.0962832 L6.10300885,19.3109735 Z M6.97699115,19.3813274 C6.97061947,19.4519469 6.91539823,19.5053097 6.84982301,19.5053097 C6.78265487,19.5053097 6.72769912,19.4519469 6.72212389,19.3813274 L6.53230088,17.0962832 L6.72212389,14.7342478 C6.72769912,14.6630973 6.78265487,14.6097345 6.84982301,14.6097345 C6.91539823,14.6097345 6.97061947,14.6630973 6.97699115,14.7342478 L7.19230088,17.0962832 L6.97699115,19.3813274 Z M7.85575221,19.399646 C7.85123894,19.4816814 7.78725664,19.5424779 7.71159292,19.5424779 C7.63353982,19.5424779 7.57168142,19.4816814 7.56637168,19.399646 L7.38690265,17.0960177 L7.56637168,14.9046903 C7.5719469,14.8231858 7.63353982,14.7623894 7.71159292,14.7623894 C7.78858407,14.7623894 7.85123894,14.8231858 7.85575221,14.9036283 L8.05911504,17.0960177 L7.85575221,19.399646 Z M8.74300885,19.4009735 L8.74300885,19.399646 C8.73769912,19.4904425 8.66575221,19.5621239 8.57920354,19.5621239 C8.49238938,19.5621239 8.42044248,19.490177 8.41539823,19.4009735 L8.24787611,17.0973451 L8.41539823,13.5321239 C8.42044248,13.4413274 8.49238938,13.369646 8.57920354,13.369646 C8.6660177,13.369646 8.7379646,13.4415929 8.74300885,13.5307965 L8.93283186,17.0973451 L8.74300885,19.4009735 Z M9.62362832,19.399646 L9.62362832,19.3983186 C9.61831858,19.4986726 9.53893805,19.5785841 9.44070796,19.5785841 C9.34433628,19.5785841 9.26469027,19.4986726 9.2599115,19.3983186 L9.10168142,17.1095575 L9.2599115,12.7287611 C9.26469027,12.6284071 9.34433628,12.5490265 9.44070796,12.5490265 C9.53893805,12.5490265 9.61831858,12.6284071 9.62362832,12.7287611 L9.80176991,17.1095575 L9.62362832,19.399646 Z M10.5371681,19.3643363 L10.5371681,19.3630088 C10.5331858,19.4747788 10.4453097,19.5615929 10.3372566,19.5615929 C10.2292035,19.5615929 10.1413274,19.4747788 10.1373451,19.3643363 L9.99053097,17.0989381 C9.99053097,17.0989381 10.1373451,12.3530973 10.1373451,12.3517699 C10.1415929,12.2413274 10.2292035,12.1529204 10.3372566,12.1529204 C10.4453097,12.1529204 10.5334513,12.2413274 10.5371681,12.3517699 L10.7030973,17.0989381 L10.5371681,19.3643363 Z M11.4453982,19.3492035 C11.4411504,19.4707965 11.3458407,19.5661062 11.2271681,19.5661062 C11.1082301,19.5661062 11.0129204,19.4707965 11.0086726,19.3502655 L10.8716814,17.0984071 L11.0086726,12.1927434 C11.0129204,12.0706195 11.1082301,11.9755752 11.2271681,11.9755752 C11.3458407,11.9755752 11.4414159,12.0706195 11.4453982,12.1927434 L11.5975221,17.0984071 L11.4453982,19.3492035 Z M12.359469,19.329292 L12.359469,19.3279646 C12.3552212,19.4593805 12.2524779,19.5637168 12.1221239,19.5637168 C11.9936283,19.5637168 11.8887611,19.4593805 11.8863717,19.329292 L11.760531,17.0989381 L11.8850442,12.3185841 C11.8887611,12.1853097 11.9933628,12.0823009 12.1221239,12.0823009 C12.2524779,12.0823009 12.3552212,12.1853097 12.359469,12.3185841 L12.500708,17.0989381 L12.359469,19.329292 Z M13.2809735,19.3160177 L13.2809735,19.3141593 C13.2788496,19.4572566 13.1657522,19.5674336 13.0261062,19.5674336 C12.8853982,19.5674336 12.7738938,19.4572566 12.769646,19.3160177 L12.6560177,17.0986726 L12.7699115,12.4932743 C12.7741593,12.3504425 12.8856637,12.2386726 13.0263717,12.2386726 C13.1660177,12.2386726 13.279115,12.3504425 13.2812389,12.4932743 L13.41,17.1 L13.2809735,19.3160177 Z M14.2210619,19.0821239 L14.209646,19.299292 C14.2083186,19.3749558 14.1764602,19.4434513 14.1278761,19.4928319 C14.0779646,19.5414159 14.009469,19.5724779 13.9369912,19.5724779 C13.8525664,19.5724779 13.7782301,19.5337168 13.7272566,19.4726549 C13.6895575,19.4283186 13.6661947,19.3709735 13.6635398,19.310708 C13.6627434,19.3080531 13.6627434,19.3046018 13.6627434,19.300885 C13.6627434,19.300885 13.5578761,17.1010619 13.5578761,17.0973451 L13.6614159,11.67 L13.6627434,11.6179646 C13.6635398,11.5229204 13.7139823,11.4382301 13.7893805,11.389646 C13.8315929,11.3615044 13.8815044,11.3450442 13.9372566,11.3450442 C13.9919469,11.3450442 14.0437168,11.3620354 14.0869912,11.3920354 C14.160531,11.4411504 14.2085841,11.5237168 14.2099115,11.6182301 L14.3251327,17.1 L14.2210619,19.0821239 Z M15.1346018,19.270885 L15.1346018,19.2682301 C15.1327434,19.4285841 15.0013274,19.5592035 14.8425664,19.5592035 C14.6832743,19.5592035 14.5521239,19.4285841 14.550531,19.2695575 L14.4902655,18.199646 L14.4310619,17.1010619 L14.550531,11.1525664 L14.550531,11.1225664 C14.5507965,11.0323009 14.5932743,10.9515929 14.6588496,10.8971681 C14.7090265,10.8560177 14.7735398,10.8310619 14.8425664,10.8310619 C14.8975221,10.8310619 14.9484956,10.8461947 14.9920354,10.8716814 C15.0751327,10.9237168 15.1332743,11.0158407 15.1359292,11.1212389 L15.2652212,17.1007965 L15.1346018,19.270885 Z M23.0283186,19.5650442 C23.0283186,19.5650442 15.6788496,19.5650442 15.6711504,19.5650442 C15.5123894,19.5488496 15.3868142,19.4224779 15.3841593,19.2597345 L15.3841593,10.8374336 C15.3868142,10.6823894 15.440177,10.6024779 15.639823,10.5257522 C16.1551327,10.3261062 16.7386726,10.2082301 17.3384071,10.2082301 C19.7848673,10.2082301 21.7895575,12.0849558 22.0022124,14.4756637 C22.3170796,14.3442478 22.6648673,14.2693805 23.0283186,14.2693805 C24.4932743,14.2693805 25.6810619,15.4576991 25.6810619,16.9237168 C25.6810619,18.389469 24.4932743,19.5650442 23.0283186,19.5650442 L23.0283186,19.5650442 Z" id="Shape" fill="#F1F2F2"></path>
                </g>
            </g>
        </g>
    </g>
</svg>