<?xml version="1.0" encoding="UTF-8"?>
<svg width="29px" height="37px" viewBox="0 0 29 37" version="1.1" xmlns="http://www.w3.org/2000/svg" xmlns:xlink="http://www.w3.org/1999/xlink">
    <!-- Generator: sketchtool 44.1 (41455) - http://www.bohemiancoding.com/sketch -->
    <title>D051F255-B236-4535-83EE-0E1E6736F302</title>
    <desc>Created with sketchtool.</desc>
    <defs></defs>
    <g id="Main" stroke="none" stroke-width="1" fill="none" fill-rule="evenodd" fill-opacity="0.712267889">
        <g id="LOfP-02-PlacePage" transform="translate(-391.000000, -1697.000000)" fill-rule="nonzero" fill="#A28B52">
            <g id="002-man-user" transform="translate(391.000000, 1697.000000)">
                <path d="M14.1044572,18.017181 C18.2004337,18.017181 21.5211913,13.9839378 21.5211913,9.00864312 C21.5211913,4.03324322 20.4309378,0 14.1044572,0 C7.7779766,0 6.6875126,4.03324322 6.6875126,9.00864312 C6.6875126,13.9839378 10.0082702,18.017181 14.1044572,18.017181 Z" id="Shape"></path>
                <path d="M28.0968155,31.4084158 C27.959455,22.7413321 26.8275197,20.2716837 18.1655936,18.7084046 C18.1655936,18.7084046 16.9462948,20.2621053 14.1043519,20.2621053 C11.2624091,20.2621053 10.0428998,18.7084046 10.0428998,18.7084046 C1.47549463,20.2546321 0.274721144,22.687651 0.116835429,31.1268529 C0.1038888,31.8159714 0.0978891433,31.8521799 0.0955734861,31.7721845 C0.0960997718,31.9220706 0.0967313147,32.199318 0.0967313147,32.682764 C0.0967313147,32.682764 2.15892927,36.8400002 14.1043519,36.8400002 C26.0495641,36.8400002 28.1119726,32.682764 28.1119726,32.682764 C28.1119726,32.3721502 28.1121831,32.1561625 28.1124989,32.0092236 C28.1101832,32.0586944 28.1055519,31.9628052 28.0968155,31.4084158 Z" id="Shape"></path>
            </g>
        </g>
    </g>
</svg>