<?xml version="1.0" encoding="UTF-8"?>
<svg width="36px" height="36px" viewBox="0 0 36 36" version="1.1" xmlns="http://www.w3.org/2000/svg" xmlns:xlink="http://www.w3.org/1999/xlink">
    <!-- Generator: sketchtool 44.1 (41455) - http://www.bohemiancoding.com/sketch -->
    <title>842295F2-1D3C-49F9-BC1D-A6057D8BFDF1</title>
    <desc>Created with sketchtool.</desc>
    <defs></defs>
    <g id="Main" stroke="none" stroke-width="1" fill="none" fill-rule="evenodd" fill-opacity="0.712267889">
        <g id="LOfP-02-PlacePage" transform="translate(-1019.000000, -1700.000000)" fill-rule="nonzero" fill="#A28B52">
            <g id="Group-16" transform="translate(227.000000, 1315.000000)">
                <g id="Group-15" transform="translate(83.000000, 36.000000)">
                    <g id="Sections-Copy-6" transform="translate(631.000000, 334.000000)">
                        <g id="Group-23">
                            <g id="002-chat" transform="translate(78.000000, 15.000000)">
                                <path d="M29.9415439,9.5845614 L26.3485614,9.5845614 L26.3485614,5.98364912 C26.3485614,2.68168421 23.6621754,0.00329824561 20.3602807,0.00329824561 L5.98835088,0.00329824561 C2.68638596,0.00329824561 0,2.68168421 0,5.98364912 L0,25.1463158 C0,26.3014035 1.47066667,26.778386 2.15578947,25.8649123 L6.82933333,19.6334737 C7.056,19.3312281 7.4042807,19.1578947 7.78484211,19.1578947 L9.58133333,19.1578947 L9.58133333,22.7508772 C9.58133333,26.0528421 12.2677193,28.7391579 15.569614,28.7391579 L28.1450526,28.7391579 C28.525614,28.7391579 28.8738947,28.9124912 29.1005614,29.214807 L33.7741053,35.4461754 C34.4637895,36.3658246 35.9298947,35.8764211 35.9298947,34.7275789 L35.9298947,15.5649123 C35.9298246,12.2629474 33.2434386,9.5845614 29.9415439,9.5845614 Z M9.58126316,15.5649123 L9.58126316,16.7705263 L7.78477193,16.7705263 C6.65985965,16.7705263 5.58624561,17.2985263 4.91305263,18.1962807 L2.39529825,21.5532632 L2.39529825,5.98364912 C2.39529825,4.00245614 4.00708772,2.39066667 5.9882807,2.39066667 L20.3602105,2.39066667 C22.3414035,2.39066667 23.953193,4.00245614 23.953193,5.98364912 L23.953193,9.58463158 L15.569614,9.58463158 C12.2676491,9.5845614 9.58126316,12.2629474 9.58126316,15.5649123 Z M33.5345263,31.1345965 L31.0169123,27.777614 C30.3435789,26.8798596 29.2701053,26.3518596 28.1450526,26.3518596 L15.569614,26.3518596 C13.5884211,26.3518596 11.9766316,24.7321404 11.9766316,22.7508772 L11.9766316,15.5649123 C11.9766316,13.5837193 13.5884211,11.9719298 15.569614,11.9719298 L29.9415439,11.9719298 C31.9227368,11.9719298 33.5345263,13.5837193 33.5345263,15.5649123 L33.5345263,31.1345965 L33.5345263,31.1345965 Z" id="Shape"></path>
                                <circle id="Oval" cx="17.9649123" cy="19.1578246" r="1.19768421"></circle>
                                <circle id="Oval" cx="22.7555789" cy="19.1578246" r="1.19768421"></circle>
                                <circle id="Oval" cx="27.5461754" cy="19.1578246" r="1.19768421"></circle>
                            </g>
                        </g>
                    </g>
                </g>
            </g>
        </g>
    </g>
</svg>