<?xml version="1.0" encoding="UTF-8"?>
<svg width="30px" height="30px" viewBox="0 0 30 30" version="1.1" xmlns="http://www.w3.org/2000/svg" xmlns:xlink="http://www.w3.org/1999/xlink">
    <!-- Generator: sketchtool 44.1 (41455) - http://www.bohemiancoding.com/sketch -->
    <title>FC6CF8BF-69CE-4BA1-B472-B85DBD6F2036</title>
    <desc>Created with sketchtool.</desc>
    <defs></defs>
    <g id="Main" stroke="none" stroke-width="1" fill="none" fill-rule="evenodd" opacity="0.395606884">
        <g id="LOfP-02-PlacePage" transform="translate(-944.000000, -1881.000000)" fill-rule="nonzero">
            <g id="Group-18" transform="translate(229.000000, 1844.000000)">
                <g id="Group-17" transform="translate(240.000000, 37.000000)">
                    <g id="Social" transform="translate(265.000000, 0.000000)">
                        <g id="003-instagram" transform="translate(210.000000, 0.000000)">
                            <path d="M14.9649658,0 C23.2293493,0 29.9300342,6.70058219 29.9300342,14.9650685 C29.9300342,23.2295548 23.2294521,29.9300342 14.9650685,29.9300342 C6.70068493,29.9300342 0,23.2294521 0,14.9650685 C0,6.70068493 6.69965753,0 14.9649658,0 Z" id="Shape" fill="#3F729B"></path>
                            <path d="M20.1297945,6.54534247 L9.79931507,6.54534247 C8.00445205,6.54534247 6.54534247,8.00537671 6.54534247,9.79931507 L6.54534247,20.1308219 C6.54534247,21.9256849 8.00537671,23.3847945 9.79931507,23.3847945 L20.1308219,23.3847945 C21.9256849,23.3847945 23.3847945,21.9247603 23.3847945,20.1308219 L23.3847945,9.79931507 C23.3846918,8.00537671 21.9246575,6.54534247 20.1297945,6.54534247 Z M21.1549315,8.42815068 L21.5234589,8.42722603 L21.5234589,11.2219521 L18.7081849,11.2313014 L18.6988356,8.43657534 C18.6988356,8.43657534 21.1549315,8.42815068 21.1549315,8.42815068 Z M14.9650685,12.1478425 C17.3005479,12.1478425 17.7821918,14.3402055 17.7821918,14.9658904 C17.7821918,16.5175685 16.5176712,17.782089 14.9650685,17.782089 C13.4115411,17.782089 12.1479452,16.5175685 12.1479452,14.9658904 C12.1469178,14.3402055 12.629589,12.1478425 14.9650685,12.1478425 Z M21.5393836,19.9268836 C21.5393836,20.8164041 20.8164041,21.5403082 19.9250342,21.5403082 L9.97325342,21.5403082 C9.08280822,21.5403082 8.35890411,20.8173288 8.35890411,19.9268836 L8.35890411,13.0906849 L10.6971575,13.0906849 C10.4801712,13.624726 10.3576027,14.3542808 10.3576027,14.9659932 C10.3576027,17.5044863 12.422774,19.5705822 14.9621918,19.5705822 C17.5016096,19.5705822 19.5657534,17.5044863 19.5657534,14.9659932 C19.5657534,14.3542808 19.4431849,13.624726 19.2271233,13.0906849 L21.5373288,13.0906849 L21.5373288,19.9268836 L21.5393836,19.9268836 Z" id="Shape" fill="#FFFFFF"></path>
                        </g>
                    </g>
                </g>
            </g>
        </g>
    </g>
</svg>