<?xml version="1.0" encoding="UTF-8"?>
<svg width="26px" height="36px" viewBox="0 0 26 36" version="1.1" xmlns="http://www.w3.org/2000/svg" xmlns:xlink="http://www.w3.org/1999/xlink">
    <!-- Generator: sketchtool 44.1 (41455) - http://www.bohemiancoding.com/sketch -->
    <title>60F1E75C-D936-4D17-BC10-244386A67A0A</title>
    <desc>Created with sketchtool.</desc>
    <defs></defs>
    <g id="Main" stroke="none" stroke-width="1" fill="none" fill-rule="evenodd" fill-opacity="0.712267889">
        <g id="LOfP-02-PlacePage" transform="translate(-392.000000, -1523.000000)" fill-rule="nonzero" fill="#A28B52">
            <g id="Group-16" transform="translate(227.000000, 1315.000000)">
                <g id="Group-15" transform="translate(83.000000, 36.000000)">
                    <g id="Sections-Copy-2" transform="translate(0.000000, 158.000000)">
                        <g id="Group-9">
                            <g id="005-microphone" transform="translate(82.000000, 14.000000)">
                                <path d="M24.6766641,11.7391641 C24.0283828,11.7391641 23.5027266,12.26475 23.5027266,12.9131016 L23.5027266,17.6087812 C23.5027266,23.4344531 18.7631719,28.1740078 12.9375,28.1740078 C7.11182812,28.1740078 2.37227344,23.4344531 2.37227344,17.6087812 L2.37227344,12.9131016 C2.37227344,12.2648203 1.8466875,11.7391641 1.19833594,11.7391641 C0.550054687,11.7391641 0.0243984375,12.26475 0.0243984375,12.9131016 L0.0243984375,17.6087813 C0.0243984375,24.3333281 5.19138281,29.8728281 11.7635625,30.4678828 L11.7635625,33.6522656 L5.89401562,33.6522656 C5.24573437,33.6522656 4.72007812,34.1778516 4.72007812,34.8262031 C4.72007812,35.4745547 5.24573438,36 5.89401562,36 L19.9809844,36 C20.6292656,36 21.1549219,35.4744141 21.1549219,34.8260625 C21.1549219,34.1777109 20.6293359,33.652125 19.9809844,33.652125 L14.1114375,33.652125 L14.1114375,30.4678125 C20.6835469,29.8726875 25.8505312,24.3332578 25.8505312,17.6087109 L25.8505312,12.9130312 C25.8505313,12.26475 25.3249453,11.7391641 24.6766641,11.7391641 Z" id="Shape"></path>
                                <path d="M12.9375,0 C8.40642187,0 4.72007812,3.68634375 4.72007812,8.21742187 L4.72007812,17.6087109 C4.72007812,22.1397891 8.40642187,25.8261328 12.9375,25.8261328 C17.4685781,25.8261328 21.1549219,22.1397891 21.1549219,17.6087109 L21.1549219,8.21742187 C21.1549219,3.68634375 17.4685781,0 12.9375,0 Z M18.8070469,11.7391641 L15.2853047,11.7391641 C14.6370234,11.7391641 14.1113672,12.26475 14.1113672,12.9131016 C14.1113672,13.5613828 14.6369531,14.0870391 15.2853047,14.0870391 L18.8070469,14.0870391 L18.8070469,16.4348438 L15.2853047,16.4348438 C14.6370234,16.4348438 14.1113672,16.9604297 14.1113672,17.6087813 C14.1113672,18.2570625 14.6369531,18.7748438 15.2853047,18.7748438 L18.6889219,18.7748438 C18.2209219,21.0713203 16.4078437,22.8922031 14.1113672,23.3602031 L14.1113672,22.3043906 C14.1113672,21.6561094 13.5857812,21.1304531 12.9374297,21.1304531 C12.2890781,21.1304531 11.7634922,21.6560391 11.7634922,22.3043906 L11.7634922,23.3602031 C9.46701562,22.8922031 7.65400781,21.079125 7.1859375,18.7826484 L10.5895547,18.7826484 C11.2378359,18.7826484 11.7634922,18.2570625 11.7634922,17.6087109 C11.7634922,16.9604297 11.2379062,16.4347734 10.5895547,16.4347734 L7.0678125,16.4347734 L7.0678125,14.0869688 L10.5895547,14.0869688 C11.2378359,14.0869688 11.7634922,13.5613828 11.7634922,12.9130313 C11.7634922,12.26475 11.2379062,11.7390938 10.5895547,11.7390938 L7.0678125,11.7390938 L7.0678125,9.39128906 L10.5895547,9.39128906 C11.2378359,9.39128906 11.7634922,8.86570313 11.7634922,8.21735156 C11.7634922,7.569 11.2379062,7.04341406 10.5895547,7.04341406 L7.1859375,7.04341406 C7.65400781,4.7469375 9.46701562,2.93392969 11.7634922,2.46585938 L11.7634922,3.52167188 C11.7634922,4.16995313 12.2890781,4.69560938 12.9374297,4.69560938 C13.5857813,4.69560938 14.1113672,4.17002344 14.1113672,3.52167188 L14.1113672,2.46592969 C16.4078437,2.93392969 18.2208516,4.74700781 18.6889219,7.04348438 L15.2853047,7.04348438 C14.6370234,7.04348438 14.1113672,7.56907031 14.1113672,8.21742188 C14.1113672,8.86577344 14.6369531,9.39135938 15.2853047,9.39135938 L18.8070469,9.39135938 L18.8070469,11.7391641 Z" id="Shape"></path>
                            </g>
                        </g>
                    </g>
                </g>
            </g>
        </g>
    </g>
</svg>