<?xml version="1.0" encoding="UTF-8"?>
<svg width="36px" height="36px" viewBox="0 0 36 36" version="1.1" xmlns="http://www.w3.org/2000/svg" xmlns:xlink="http://www.w3.org/1999/xlink">
    <!-- Generator: sketchtool 44.1 (41455) - http://www.bohemiancoding.com/sketch -->
    <title>D8542230-566E-42FD-BC43-FEFF616ED607</title>
    <desc>Created with sketchtool.</desc>
    <defs></defs>
    <g id="Main" stroke="none" stroke-width="1" fill="none" fill-rule="evenodd" fill-opacity="0.712267889">
        <g id="LOfP-02-PlacePage" transform="translate(-698.000000, -1523.000000)" fill-rule="nonzero" fill="#A28B52">
            <g id="Group-16" transform="translate(227.000000, 1315.000000)">
                <g id="Group-15" transform="translate(83.000000, 36.000000)">
                    <g id="Sections-Copy" transform="translate(310.000000, 158.000000)">
                        <g id="Group-8">
                            <g id="Group-24">
                                <g id="Group-26">
                                    <g id="Group-27">
                                        <g id="009-file" transform="translate(78.000000, 14.000000)">
                                            <path d="M32.4782578,4.69567969 C30.5363672,4.69567969 28.9565156,6.27553125 28.9565156,8.21742188 L28.9565156,30.1304531 C28.9565156,30.3127031 28.9989141,30.4924219 29.0804063,30.6554063 L31.4282109,35.3510859 C31.627125,35.7487734 32.0335313,36 32.4782578,36 C32.9229141,36 33.3293203,35.7487734 33.5283047,35.3510859 L35.8761094,30.6554063 C35.9576719,30.4924219 36,30.3127031 36,30.1304531 L36,8.21742188 C36,6.27553125 34.4201484,4.69567969 32.4782578,4.69567969 Z M33.6521953,29.8532813 L32.4782578,32.2010859 L31.3043203,29.8532813 L31.3043203,28.9565156 L33.652125,28.9565156 L33.652125,29.8532813 L33.6521953,29.8532813 Z M33.6521953,26.6087109 L31.3043906,26.6087109 L31.3043906,14.0869688 L33.6521953,14.0869688 L33.6521953,26.6087109 Z M33.6521953,11.7391641 L31.3043906,11.7391641 L31.3043906,8.21742188 C31.3043906,7.570125 31.8310312,7.04348438 32.4783281,7.04348438 C33.125625,7.04348438 33.6522656,7.570125 33.6522656,8.21742188 L33.6522656,11.7391641 L33.6521953,11.7391641 Z" id="Shape"></path>
                                            <path d="M25.4347734,0 L1.1739375,0 C0.525585937,0 0,0.525585937 0,1.1739375 L0,27.7825781 C0,28.0877344 0.123609375,28.3923984 0.344039062,28.6128281 L7.38675,35.6555391 C7.60415625,35.8732266 7.90467187,35.9999297 8.21742187,35.9999297 L25.4348437,35.9999297 C26.083125,35.9999297 26.6087812,35.4743437 26.6087812,34.8259922 L26.6087812,1.1739375 C26.6087109,0.525585937 26.083125,0 25.4347734,0 Z M7.04348438,31.9920469 L4.00795313,28.9565156 L7.04348438,28.9565156 L7.04348438,31.9920469 Z M24.2608359,33.6521953 L9.39128906,33.6521953 L9.39128906,27.7825781 C9.39128906,27.1342969 8.86570312,26.6086406 8.21735156,26.6086406 L2.34780469,26.6086406 L2.34780469,2.34780469 L24.2608359,2.34780469 L24.2608359,33.6521953 Z" id="Shape"></path>
                                            <path d="M16.0434844,4.69567969 L10.5652266,4.69567969 C9.91694531,4.69567969 9.39128906,5.22126562 9.39128906,5.86961719 C9.39128906,6.51796875 9.916875,7.04355469 10.5652266,7.04355469 L16.0434844,7.04355469 C16.6917656,7.04355469 17.2174219,6.51796875 17.2174219,5.86961719 C17.2174219,5.22126562 16.6917656,4.69567969 16.0434844,4.69567969 Z" id="Shape"></path>
                                            <path d="M20.7391641,10.1739375 L5.86954688,10.1739375 C5.22126563,10.1739375 4.69560938,10.6995234 4.69560938,11.347875 C4.69560938,11.9962266 5.22119531,12.5218125 5.86954688,12.5218125 L20.7390937,12.5218125 C21.387375,12.5218125 21.9130312,11.9962266 21.9130312,11.347875 C21.9130312,10.6995234 21.3874453,10.1739375 20.7391641,10.1739375 Z" id="Shape"></path>
                                            <path d="M20.7391641,14.8695469 L5.86954688,14.8695469 C5.22126563,14.8695469 4.69560938,15.3951328 4.69560938,16.0434844 C4.69560938,16.6917656 5.22119531,17.2174219 5.86954688,17.2174219 L20.7390937,17.2174219 C21.387375,17.2174219 21.9130312,16.6918359 21.9130312,16.0434844 C21.9130312,15.3951328 21.3874453,14.8695469 20.7391641,14.8695469 Z" id="Shape"></path>
                                            <path d="M20.7391641,19.5652266 L5.86954688,19.5652266 C5.22126563,19.5652266 4.69560938,20.0908125 4.69560938,20.7391641 C4.69560938,21.3875156 5.22119531,21.9131016 5.86954688,21.9131016 L20.7390937,21.9131016 C21.387375,21.9131016 21.9130312,21.3875156 21.9130312,20.7391641 C21.9130312,20.0908125 21.3874453,19.5652266 20.7391641,19.5652266 Z" id="Shape"></path>
                                            <path d="M20.7391641,24.2608359 L12.9130312,24.2608359 C12.26475,24.2608359 11.7390938,24.7864219 11.7390938,25.4347734 C11.7390938,26.083125 12.2646797,26.6087109 12.9130312,26.6087109 L20.7390937,26.6087109 C21.387375,26.6087109 21.9130312,26.083125 21.9130312,25.4347734 C21.9130312,24.7864219 21.3874453,24.2608359 20.7391641,24.2608359 Z" id="Shape"></path>
                                            <path d="M20.7391641,28.9565156 L12.9130312,28.9565156 C12.26475,28.9565156 11.7390938,29.4821016 11.7390938,30.1304531 C11.7390938,30.7788047 12.2646797,31.3043906 12.9130312,31.3043906 L20.7390937,31.3043906 C21.387375,31.3043906 21.9130312,30.7788047 21.9130312,30.1304531 C21.9130312,29.4821016 21.3874453,28.9565156 20.7391641,28.9565156 Z" id="Shape"></path>
                                        </g>
                                    </g>
                                </g>
                            </g>
                        </g>
                    </g>
                </g>
            </g>
        </g>
    </g>
</svg>