<?xml version="1.0" encoding="UTF-8"?>
<svg width="36px" height="37px" viewBox="0 0 36 37" version="1.1" xmlns="http://www.w3.org/2000/svg" xmlns:xlink="http://www.w3.org/1999/xlink">
    <!-- Generator: sketchtool 44.1 (41455) - http://www.bohemiancoding.com/sketch -->
    <title>618364A9-5D71-4525-B81E-776E626B35E4</title>
    <desc>Created with sketchtool.</desc>
    <defs></defs>
    <g id="Main" stroke="none" stroke-width="1" fill="none" fill-rule="evenodd" fill-opacity="0.712267889">
        <g id="LOfP-02-PlacePage" transform="translate(-388.000000, -1365.000000)" fill-rule="nonzero" fill="#A28B52">
            <g id="Group-16" transform="translate(227.000000, 1315.000000)">
                <g id="Group-15" transform="translate(83.000000, 36.000000)">
                    <g id="Sections-Copy-8">
                        <g id="Group-21">
                            <g id="Group-22">
                                <g id="Group-12" transform="translate(78.000000, 14.000000)">
                                    <g id="Group-11">
                                        <g id="007-newspaper">
                                            <path d="M34.7621594,19.1567331 L28.7756892,19.1567331 L28.7756892,1.19732271 C28.7756892,0.53612749 28.2396335,0 27.5783665,0 L1.23784064,0 C0.576573705,0 0.0405179283,0.536055777 0.0405179283,1.19732271 L0.0405179283,31.9279841 C0.0405179283,34.5686773 2.18897211,36.7171315 4.82973705,36.7171315 L31.1702629,36.7171315 C33.8110279,36.7171315 35.9594821,34.5686773 35.9594821,31.9279124 L35.9594821,20.3540558 C35.9594821,19.6928606 35.4234263,19.1567331 34.7621594,19.1567331 Z M4.82973705,34.3225578 C3.50935458,34.3225578 2.43516335,33.2483665 2.43516335,31.9279841 L2.43516335,2.39457371 L26.3811155,2.39457371 C26.3811155,2.85540239 26.3811155,31.4201833 26.3811155,31.9279124 C26.3811155,32.7999442 26.6164781,33.6174741 27.0253865,34.3224861 L4.82973705,34.3224861 L4.82973705,34.3225578 Z M33.5648367,31.9279124 C33.5648367,33.2482948 32.4906454,34.3224861 31.1702629,34.3224861 C29.8498805,34.3224861 28.7756892,33.2482948 28.7756892,31.9279124 C28.7756892,31.1080159 28.7756892,22.0170837 28.7756892,21.5513068 L33.5649084,21.5513068 L33.5649084,31.9279124 L33.5648367,31.9279124 Z" id="Shape"></path>
                                            <path d="M13.2107809,4.78921912 L6.02705976,4.78921912 C5.36586454,4.78921912 4.82973705,5.3252749 4.82973705,5.98654183 L4.82973705,15.5649084 C4.82973705,16.2261036 5.36579283,16.7622311 6.02705976,16.7622311 L13.2108526,16.7622311 C13.8720478,16.7622311 14.4081753,16.2261753 14.4081753,15.5649084 L14.4081753,5.98647012 C14.4081036,5.3252749 13.8720478,4.78921912 13.2107809,4.78921912 Z M12.0135299,14.3675857 L7.22431076,14.3675857 L7.22431076,7.18379283 L12.0135299,7.18379283 L12.0135299,14.3675857 Z" id="Shape"></path>
                                            <path d="M13.2107809,24.7441195 L6.02705976,24.7441195 C5.36586454,24.7441195 4.82973705,25.2801753 4.82973705,25.9414422 C4.82973705,26.6027092 5.36579283,27.1387649 6.02705976,27.1387649 L13.2108526,27.1387649 C13.8720478,27.1387649 14.4081753,26.6027092 14.4081753,25.9414422 C14.4081753,25.2801753 13.8720478,24.7441195 13.2107809,24.7441195 Z" id="Shape"></path>
                                            <path d="M13.2107809,29.5333386 L6.02705976,29.5333386 C5.36586454,29.5333386 4.82973705,30.0693944 4.82973705,30.7306614 C4.82973705,31.3919283 5.36579283,31.9279841 6.02705976,31.9279841 L13.2108526,31.9279841 C13.8720478,31.9279841 14.4081753,31.3919283 14.4081753,30.7306614 C14.4081753,30.0693944 13.8720478,29.5333386 13.2107809,29.5333386 Z" id="Shape"></path>
                                            <path d="M22.7892191,24.7441195 L18,24.7441195 C17.3388048,24.7441195 16.8026773,25.2801753 16.8026773,25.9414422 C16.8026773,26.6027092 17.3387331,27.1387649 18,27.1387649 L22.7892191,27.1387649 C23.4504143,27.1387649 23.9865418,26.6027092 23.9865418,25.9414422 C23.9865418,25.2801753 23.4504143,24.7441195 22.7892191,24.7441195 Z" id="Shape"></path>
                                            <path d="M22.7892191,29.5333386 L18,29.5333386 C17.3388048,29.5333386 16.8026773,30.0693944 16.8026773,30.7306614 C16.8026773,31.3919283 17.3387331,31.9279841 18,31.9279841 L22.7892191,31.9279841 C23.4504143,31.9279841 23.9865418,31.3919283 23.9865418,30.7306614 C23.9865418,30.0693944 23.4504143,29.5333386 22.7892191,29.5333386 Z" id="Shape"></path>
                                            <path d="M22.7892191,4.78921912 L18,4.78921912 C17.3388048,4.78921912 16.8026773,5.3252749 16.8026773,5.98654183 C16.8026773,6.64780876 17.3387331,7.18386454 18,7.18386454 L22.7892191,7.18386454 C23.4504143,7.18386454 23.9865418,6.64780876 23.9865418,5.98654183 C23.9865418,5.3252749 23.4504143,4.78921912 22.7892191,4.78921912 Z" id="Shape"></path>
                                            <path d="M22.7892191,9.57836653 L18,9.57836653 C17.3388048,9.57836653 16.8026773,10.1144223 16.8026773,10.7756892 C16.8026773,11.4369562 17.3387331,11.973012 18,11.973012 L22.7892191,11.973012 C23.4504143,11.973012 23.9865418,11.4369562 23.9865418,10.7756892 C23.9865418,10.1144223 23.4504143,9.57836653 22.7892191,9.57836653 Z" id="Shape"></path>
                                            <path d="M22.7892191,14.3675857 L18,14.3675857 C17.3388048,14.3675857 16.8026773,14.9036414 16.8026773,15.5649084 C16.8026773,16.2261036 17.3387331,16.7622311 18,16.7622311 L22.7892191,16.7622311 C23.4504143,16.7622311 23.9865418,16.2261753 23.9865418,15.5649084 C23.9864701,14.9036414 23.4504143,14.3675857 22.7892191,14.3675857 Z" id="Shape"></path>
                                        </g>
                                    </g>
                                </g>
                            </g>
                        </g>
                    </g>
                </g>
            </g>
        </g>
    </g>
</svg>