<?xml version="1.0" encoding="UTF-8"?>
<svg width="269px" height="268px" viewBox="0 0 269 268" version="1.1" xmlns="http://www.w3.org/2000/svg" xmlns:xlink="http://www.w3.org/1999/xlink">
    <!-- Generator: sketchtool 44.1 (41455) - http://www.bohemiancoding.com/sketch -->
    <title>C302FF3B-D98B-403B-8EED-C434906EDC25</title>
    <desc>Created with sketchtool.</desc>
    <defs>
        <rect id="path-1" x="0" y="0" width="270" height="270"></rect>
        <filter x="-6.5%" y="-6.5%" width="113.0%" height="113.0%" filterUnits="objectBoundingBox" id="filter-2">
            <feGaussianBlur stdDeviation="17.5" in="SourceAlpha" result="shadowBlurInner1"></feGaussianBlur>
            <feOffset dx="0" dy="0" in="shadowBlurInner1" result="shadowOffsetInner1"></feOffset>
            <feComposite in="shadowOffsetInner1" in2="SourceAlpha" operator="arithmetic" k2="-1" k3="1" result="shadowInnerInner1"></feComposite>
            <feColorMatrix values="0 0 0 0 0   0 0 0 0 0   0 0 0 0 0  0 0 0 0.121263587 0" type="matrix" in="shadowInnerInner1"></feColorMatrix>
        </filter>
    </defs>
    <g id="Main" stroke="none" stroke-width="1" fill="none" fill-rule="evenodd">
        <g id="LOfP-01-Home" transform="translate(-1171.000000, 0.000000)">
            <g id="LOGO" transform="translate(1171.000000, -2.000000)">
                <g id="Logo">
                    <g id="LOGO">
                        <g id="Rectangle" transform="translate(135.000000, 135.000000) rotate(-270.000000) translate(-135.000000, -135.000000) ">
                            <use fill="#454545" fill-rule="evenodd" xlink:href="#path-1"></use>
                            <use fill="black" fill-opacity="1" filter="url(#filter-2)" xlink:href="#path-1"></use>
                        </g>
                        <g id="Group-3" transform="translate(70.000000, 90.000000)">
                            <text id="Landscape-of-Pain" font-family="Exo-Medium, Exo" font-size="17" font-weight="400" line-spacing="15">
                                <tspan x="23.776" y="72.966" fill="#D8D8D8">Landscape of </tspan>
                                <tspan x="93.408" y="87.966" font-family="Exo-Bold, Exo" font-weight="bold" fill="#AF9046">Pain</tspan>
                            </text>
                            <g id="Group-2">
                                <path d="M129.532865,46.0334532 L125.572114,52.4626764 C122.773958,51.9121592 120.921685,51.6369047 120.01524,51.6369047 C118.458519,51.6369047 115.325419,52.5216513 110.615845,54.2911711 C105.906272,56.0606909 102.359366,56.9454376 99.9750212,56.9454376 L97.9059721,56.9454376 L97.9059721,48.8646708 L102.428322,48.8646708 C107.689645,48.8646708 112.113425,48.3928059 115.699794,47.449062 C113.748967,46.3873501 111.364658,44.9029419 108.546796,42.9957927 C106.753611,41.7767902 105.561457,41.1672981 104.970297,41.1672981 C104.379137,41.1672981 103.305213,42.5140791 101.748492,45.2076814 C101.472617,45.2470041 101.103148,45.1486989 100.640073,44.912763 C100.176998,44.676827 99.8764958,44.431064 99.7385585,44.1754667 C102.792884,37.5692594 105.256013,34.2662053 107.12802,34.2662053 C108.34975,34.2662053 110.339958,35.3279012 113.098704,37.451325 C117.315644,40.6757834 119.926561,42.6025649 120.931533,43.2317275 C124.222323,45.2568447 127.089405,46.1907439 129.532865,46.0334532 Z" id="Path" fill="#D8D8D8"></path>
                                <polygon id="Path" fill="#D8D8D8" points="112.468061 25.1077474 107.184808 30.0845269 102 24.9112956 107.381699 20"></polygon>
                                <path d="M99.0714785,56.7921956 L97.26845,56.7921956 C93.5047323,56.7921956 91.0514558,55.2389737 89.9085468,52.1324834 C89.140039,50.0287209 88.6277081,45.3395637 88.3715389,38.0648711 C88.2533069,34.4668475 88.1055192,31.9698959 87.9281712,30.5739414 C87.5931806,27.8606776 86.9626196,25.4522007 86.0364692,23.3484382 L91.4455547,17.6860031 C92.3519998,19.1212803 92.9135932,21.3331469 93.1303518,24.3216692 C93.2091731,25.4030425 93.2485832,27.6935532 93.2485832,31.1932702 L93.2485832,39.8933658 C93.2485832,42.4886616 93.435781,44.376121 93.8101822,45.5558009 C94.4801634,47.6595634 95.8201056,48.7114288 97.830049,48.7114288 L99.0714785,48.7114288 L99.0714785,56.7921956 Z" id="Path" fill="#D8D8D8"></path>
                                <path d="M87.2541365,17.6860031 L83.8845422,25.5603269 C77.5000159,27.5461214 71.6968839,29.8366321 66.474972,32.4319279 C71.7559999,34.1424637 75.4901035,36.9834835 77.6773949,40.9550724 C77.6971003,41.584235 77.7069528,42.1937271 77.7069528,42.7835671 C77.7069528,46.0866707 77.3818197,48.91786 76.7315439,51.2772197 C74.9580644,53.8528541 72.2289174,55.6125169 68.5440211,56.5562608 C66.0808551,57.1854234 62.7408521,57.5 58.5239119,57.5 C52.6320188,57.5 48.6614548,57.0871182 46.6121007,56.2613423 C43.6168908,55.0620011 42.1193083,52.5257274 42.1193083,48.6524451 C42.1193083,45.1723895 43.3311678,41.5350977 45.7549232,37.7404608 C46.6810736,37.6618155 47.2722246,37.9862226 47.5283938,38.7136918 C46.3854848,40.5815183 45.8140389,42.3805031 45.8140389,44.1107003 C45.8140389,46.705996 47.2229487,48.3280315 50.0408106,48.9768555 C51.4004782,49.2914368 54.7207762,49.4487251 60.0018041,49.4487251 C67.5489447,49.4487251 72.4949079,48.5443174 74.8398419,46.7354749 C73.2634156,43.1571126 69.3716717,40.1194825 63.1644934,37.6224934 C63.1644934,34.810923 63.499479,31.321089 64.1694601,27.1528868 C67.2829019,25.4226896 71.0958257,23.5942133 75.6083458,21.6674028 C80.8105524,19.4456723 84.6924438,18.1185524 87.2541365,17.6860031 Z" id="Path" fill="#D8D8D8"></path>
                                <path d="M63.167472,21.9494536 C63.167472,24.3088134 62.1329578,27.5332233 60.0638984,31.6227803 C58.0736603,35.5550465 56.0341894,38.5631851 53.9454246,40.6472862 C52.585757,40.6472862 50.7630415,40.1754213 48.4772235,39.2316774 C46.1914054,38.2879335 44.5558877,37.3343733 43.5706213,36.370968 C47.1372857,34.7390775 50.3196484,32.8417875 53.117805,30.6790411 C56.4085948,28.1427293 58.359393,25.8522186 58.9702582,23.8074401 C58.0835184,21.3497737 56.2608029,19.1968902 53.502057,17.3487251 L57.5810395,9.47440124 C59.0392338,10.7327264 60.3348396,12.639847 61.467896,15.1958201 C62.6009524,17.7517931 63.167472,20.0029818 63.167472,21.9494536 Z M50.5184534,16.7210655 C49.8287669,20.8892678 48.8829254,23.720457 47.6809004,25.2147182 C45.4541983,27.9869659 42.3408032,29.373069 38.3406216,29.373069 L36.4489196,29.373069 L36.4489196,21.2923022 L39.5229354,21.2923022 C43.7989915,21.2923022 45.9369876,20.6533185 45.9369876,19.375332 C45.9369876,18.4905721 44.8236532,16.5441294 42.5969512,13.5359458 L47.1488592,7.34265735 C49.3952666,10.3311797 50.5184534,13.4572845 50.5184534,16.7210655 Z M45.8778719,4.60072853 L41.1190589,9.08348966 L36.4489196,4.42377743 L41.296406,0 L45.8778719,4.60072853 Z M36.4489196,29.4265049 L33.70004,29.4265049 C25.9164355,29.4265049 21.4236881,25.0715853 20.2216631,16.3616155 C16.2805975,17.3643434 13.0883822,19.6253626 10.6449216,23.1447409 C8.77291539,25.8383433 7.83692635,28.1878372 7.83692635,30.193293 C7.83692635,37.3500176 14.0243065,40.9283262 26.3992525,40.9283262 C28.1333214,40.9283262 31.1284863,40.8005295 35.3848372,40.5449322 L32.6063998,44.2609052 C30.9708576,44.8310838 28.3599408,45.3521013 24.7735711,45.8239732 C21.3842547,46.2761838 18.6156976,46.5022858 16.4678169,46.5022858 C12.1917607,46.5022858 8.64485485,45.5487255 5.82699295,43.6415764 C2.57561383,41.4395072 0.94994865,38.3035719 0.94994865,34.2336764 C0.94994865,30.3210714 2.83177925,26.3692031 6.5954969,22.3779528 C9.64982274,19.1338332 12.8518905,16.8138309 16.2017963,15.4178763 C11.0587057,14.2775191 8.22118099,13.7073491 7.68913713,13.7073491 C6.62504942,13.7073491 5.45259999,15.2409099 4.17175367,18.3080776 C3.22589793,18.3080776 2.50666424,18.0229926 2.01403104,17.452814 C3.74809991,13.186305 4.82202417,10.6303703 5.23583606,9.78493307 C6.49697705,7.20929866 7.63001642,5.92150077 8.63498815,5.92150077 C10.0734771,5.92150077 12.6794676,6.49658609 16.4530379,7.64677397 C20.2266083,8.79696186 23.1577318,9.36221665 25.2464966,9.34255532 L34.4981018,9.28357162 L30.5964664,16.1846644 L23.2956789,16.1846644 C23.8868387,17.9148616 24.5863674,19.1043543 25.3942858,19.7531782 C26.7342481,20.8148901 28.9116542,21.3457381 31.9265694,21.3457381 L36.4489196,21.3457381 L36.4489196,29.4265049 Z M22.2484039,29.4710318 L17.489591,33.9537929 L12.8194516,29.2940807 L17.666938,24.8703033 L22.2484039,29.4710318 Z" id="خاک-رنج" fill="#AF9046"></path>
                            </g>
                            <rect id="Rectangle-2" fill="#D8D8D8" opacity="0.684386322" transform="translate(53.432447, 59.774715) rotate(68.000000) translate(-53.432447, -59.774715) " x="52.9324468" y="56.274715" width="1" height="7"></rect>
                        </g>
                    </g>
                </g>
            </g>
        </g>
    </g>
</svg>