<?xml version="1.0" encoding="UTF-8"?>
<svg width="29px" height="36px" viewBox="0 0 29 36" version="1.1" xmlns="http://www.w3.org/2000/svg" xmlns:xlink="http://www.w3.org/1999/xlink">
    <!-- Generator: sketchtool 44.1 (41455) - http://www.bohemiancoding.com/sketch -->
    <title>5D9A8549-1A2F-4A72-A2BA-63C6290BFED5</title>
    <desc>Created with sketchtool.</desc>
    <defs></defs>
    <g id="Main" stroke="none" stroke-width="1" fill="none" fill-rule="evenodd" fill-opacity="0.712267889">
        <g id="LOfP-02-PlacePage" transform="translate(-1023.000000, -1363.000000)" fill-rule="nonzero" fill="#A28B52">
            <g id="Group-16" transform="translate(227.000000, 1315.000000)">
                <g id="Group-15" transform="translate(83.000000, 36.000000)">
                    <g id="Sections-Copy-5" transform="translate(631.000000, 0.000000)">
                        <g id="Group-20">
                            <g id="Group-25">
                                <path d="M108.993123,16.6865263 L105.360351,16.6865263 C104.81607,14.0157895 102.449123,12 99.6201404,12 C98.9731228,12 98.4484912,12.5245614 98.4484912,13.1716491 L98.4484912,16.6865263 L83.2174035,16.6865263 C82.570386,16.6865263 82.0457544,17.2110877 82.0457544,17.8581754 L82.0457544,46.7582456 C82.0457544,47.4052632 82.5703158,47.9298947 83.2174035,47.9298947 C84.0478596,47.9298947 108.631789,47.9298947 108.993123,47.9298947 C109.64014,47.9298947 110.164772,47.4053333 110.164772,46.7582456 L110.164772,17.8581053 C110.164772,17.2110877 109.640211,16.6865263 108.993123,16.6865263 Z M84.3889825,19.0297544 L98.4484912,19.0297544 L98.4484912,26.0595088 L87.9038596,26.0595088 C87.2568421,26.0595088 86.7322105,26.5840702 86.7322105,27.2311579 C86.7322105,27.8781754 87.2567719,28.402807 87.9038596,28.402807 L98.4484912,28.402807 L98.4484912,36.2964211 C97.2432281,36.4672281 96.1036491,36.9006316 95.0962105,37.5701053 C94.3806316,36.0625263 93.3068772,34.724 91.9750877,33.7019649 C90.1210526,32.2791579 87.9030175,31.5270877 85.5606316,31.5270877 C85.1682807,31.5270877 84.7771228,31.5499649 84.3889825,31.5929825 L84.3889825,19.0297544 L84.3889825,19.0297544 Z M100.791789,45.5865965 L84.3889825,45.5865965 L84.3889825,33.954386 C84.7756491,33.8991579 85.1672281,33.8703158 85.5606316,33.8703158 C89.2139649,33.8703158 92.4595789,36.3223158 93.4530526,39.8331228 C93.6998596,40.7052632 94.7953684,40.9734035 95.4202807,40.3310175 C96.2550877,39.4726316 97.3032281,38.9036491 98.4484912,38.6729825 L98.4484912,39.7284912 C98.4484912,40.3755088 98.9730526,40.9001404 99.6201404,40.9001404 L100.791789,40.9001404 C102.08386,40.9001404 103.135018,41.9512982 103.135018,43.2433684 C103.135018,44.5353684 102.08386,45.5865965 100.791789,45.5865965 Z M103.135018,39.1857544 C102.445333,38.7858947 101.644702,38.5568421 100.791789,38.5568421 L100.791789,14.544 C102.155649,15.0275789 103.135018,16.3306667 103.135018,17.8581053 L103.135018,39.1857544 Z M107.821544,45.5865965 L104.847789,45.5865965 C105.24793,44.8966316 105.478246,44.0967018 105.478246,43.2433684 L105.478246,19.0297544 L107.821474,19.0297544 L107.821474,45.5865965 L107.821544,45.5865965 Z" id="Shape"></path>
                            </g>
                        </g>
                    </g>
                </g>
            </g>
        </g>
    </g>
</svg>