<?xml version="1.0" encoding="UTF-8"?>
<svg width="36px" height="36px" viewBox="0 0 36 36" version="1.1" xmlns="http://www.w3.org/2000/svg" xmlns:xlink="http://www.w3.org/1999/xlink">
    <!-- Generator: sketchtool 44.1 (41455) - http://www.bohemiancoding.com/sketch -->
    <title>BA8F0D05-942C-470D-B179-8A6773E5F0B1</title>
    <desc>Created with sketchtool.</desc>
    <defs></defs>
    <g id="Main" stroke="none" stroke-width="1" fill="none" fill-rule="evenodd" fill-opacity="0.712267889">
        <g id="LOfP-02-PlacePage" transform="translate(-703.000000, -1365.000000)" fill-rule="nonzero" fill="#A28B52">
            <g id="Group-16" transform="translate(227.000000, 1315.000000)">
                <g id="Group-15" transform="translate(83.000000, 36.000000)">
                    <g id="Sections" transform="translate(315.000000, 0.000000)">
                        <g id="Group-6">
                            <g id="timeline" transform="translate(78.000000, 14.000000)">
                                <path d="M35.2393594,30.2726953 L35.2393594,22.9090781 L18.8756719,22.9090781 L18.8756719,20.4545391 L30.3302109,20.4545391 L30.3302109,13.0909219 L18.8756719,13.0909219 L18.8756719,10.7355937 L22.1484375,7.46289844 L22.1484375,0 L13.1484375,0 L13.1484375,7.46289844 L16.4211328,10.7355937 L16.4211328,13.0909219 L0.057515625,13.0909219 L0.057515625,20.4545391 L16.4211328,20.4545391 L16.4211328,22.9090781 L0.057515625,22.9090781 L0.057515625,30.2726953 L16.4211328,30.2726953 L16.4211328,33.2848125 C16.1673047,33.5731641 16.0120547,33.9501797 16.0120547,34.3636172 C16.0120547,35.2659375 16.7461172,36 17.6484375,36 C18.5507578,36 19.2848203,35.2659375 19.2848203,34.3636172 C19.2848203,33.9501797 19.1295,33.5732344 18.8757422,33.2848125 L18.8757422,30.2726953 L35.2393594,30.2726953 Z M16.4211328,27.8181563 L2.51205469,27.8181563 L2.51205469,25.3636172 L16.4211328,25.3636172 L16.4211328,27.8181563 Z M16.4211328,18 L2.51205469,18 L2.51205469,15.5454609 L16.4211328,15.5454609 L16.4211328,18 Z M32.7848203,25.3636172 L32.7848203,27.8181563 L18.8756719,27.8181563 L18.8756719,25.3636172 L32.7848203,25.3636172 Z M27.8756719,15.5454609 L27.8756719,18 L18.8756719,18 L18.8756719,15.5454609 L27.8756719,15.5454609 Z M17.6484375,8.49164062 L15.6029766,6.44617969 L15.6029766,2.45453906 L19.6938984,2.45453906 L19.6938984,6.44617969 L17.6484375,8.49164062 Z" id="Shape"></path>
                            </g>
                        </g>
                    </g>
                </g>
            </g>
        </g>
    </g>
</svg>