<?xml version="1.0" encoding="UTF-8"?>
<svg width="30px" height="30px" viewBox="0 0 30 30" version="1.1" xmlns="http://www.w3.org/2000/svg" xmlns:xlink="http://www.w3.org/1999/xlink">
    <!-- Generator: sketchtool 44.1 (41455) - http://www.bohemiancoding.com/sketch -->
    <title>95FBB4BF-8AA2-4656-AF19-00B2CCD00DEB</title>
    <desc>Created with sketchtool.</desc>
    <defs></defs>
    <g id="Main" stroke="none" stroke-width="1" fill="none" fill-rule="evenodd" opacity="0.395606884">
        <g id="LOfP-02-PlacePage" transform="translate(-734.000000, -1881.000000)">
            <g id="Group-18" transform="translate(229.000000, 1844.000000)">
                <g id="Group-17" transform="translate(240.000000, 37.000000)">
                    <g id="Social" transform="translate(265.000000, 0.000000)">
                        <g id="telegram">
                            <circle id="Oval" fill="#7AA5DA" cx="15" cy="15" r="15"></circle>
                            <path d="M22.483418,7.8234375 C23.0814258,7.59011719 23.6995898,8.11335937 23.5682812,8.74160156 L20.8864453,21.5608008 C20.7611719,22.1617969 20.0551172,22.4325 19.5601758,22.0688672 L15.5116992,19.097168 L13.4480859,21.2042578 C13.0854492,21.5739844 12.4601953,21.423457 12.3046289,20.9305078 L10.8157617,16.2042187 L6.82482422,15.0254297 C6.30058594,14.8708594 6.27029297,14.1416016 6.77835937,13.9426172 L22.483418,7.8234375 Z M20.5147266,10.6678711 C20.6894531,10.5133008 20.4864258,10.2406055 20.2884375,10.3638281 L11.6742773,15.7062305 C11.5227539,15.8001562 11.4530859,15.9850195 11.506582,16.1557031 L12.6813281,21.3142969 C12.7045898,21.3931055 12.8176758,21.3819727 12.8278125,21.3001758 L13.0904297,17.3688867 C13.1005078,17.2719141 13.1469727,17.1830273 13.2197461,17.1183984 L20.5147266,10.6678711 Z" id="Shape" fill="#FFFFFF"></path>
                            <path d="M20.2884961,10.3638281 C20.4864844,10.2406055 20.6895117,10.5133008 20.5147852,10.6678711 L13.2198633,17.1183984 C13.1471484,17.1830273 13.1006836,17.2719141 13.0905469,17.3688867 L12.8279297,21.3001758 C12.8178516,21.3819727 12.704707,21.3931055 12.6814453,21.3142969 L11.5066992,16.1557031 C11.4531445,15.9850195 11.5228711,15.8001562 11.6743945,15.7062305 L20.2884961,10.3638281 Z" id="Shape" fill="#9EC2E5"></path>
                            <path d="M12.7238672,21.3678516 C12.5339648,21.3001758 12.3733594,21.1486523 12.3046875,20.9304492 L10.8158203,16.2041602 L6.82488281,15.0253711 C6.30064453,14.8708008 6.27035156,14.141543 6.77841797,13.9425586 L22.483418,7.8234375 C22.8692578,7.67291016 23.2642383,7.83755859 23.4591797,8.14265625 C23.422793,8.08710937 23.379375,8.03560547 23.330918,7.99013672 L12.6763477,16.6880859 L12.6763477,17.0688867 L12.6177539,17.0264648 L12.6763477,19.4244727 L12.6763477,21.3476953 C12.6915234,21.3547852 12.7076367,21.3608203 12.7238086,21.3658594 L12.7238086,21.3678516 L12.7238672,21.3678516 Z" id="Shape" fill="#FFFFFF"></path>
                            <g id="Group" transform="translate(12.832031, 21.210938)"></g>
                            <g id="Group" transform="translate(12.832031, 21.386719)"></g>
                            <g id="Group" transform="translate(12.714844, 21.328125)"></g>
                            <g id="Group" transform="translate(12.714844, 21.328125)"></g>
                            <path d="M20.5147266,10.6678711 L13.2198047,17.1183984 C13.1470898,17.1830273 13.100625,17.2719141 13.0904883,17.3688867 L12.8283398,21.3005273 C12.8182617,21.3823242 12.7051172,21.393457 12.6808594,21.3146484 L11.5066406,16.1557617 C11.4530859,15.9850781 11.5228125,15.8002148 11.6743359,15.7062891 L20.2884961,10.3638867 C20.4864844,10.2406055 20.6895117,10.5133594 20.5147266,10.6678711 Z" id="Shape" fill="#7AA5DA"></path>
                        </g>
                    </g>
                </g>
            </g>
        </g>
    </g>
</svg>